<svg width="215" height="223" viewBox="0 0 215 223" fill="none" xmlns="http://www.w3.org/2000/svg">
<path d="M213.443 29.4873C213.443 29.4873 211.261 25.4173 207.769 19.8922C207.769 19.8922 196.665 28.2052 196.767 27.7372C196.868 27.2691 213.443 29.4873 213.443 29.4873Z" fill="#231F20"/>
<path d="M213.443 29.996H213.372C207.536 29.2227 198.005 28.0628 196.97 28.2052C196.675 28.3172 196.594 28.2052 196.493 28.2052C196.406 28.1482 196.338 28.0662 196.298 27.9701C196.258 27.8739 196.248 27.7679 196.269 27.666C196.269 27.5133 196.32 27.3709 196.645 27.2997C197.305 27.0351 203.628 22.3851 207.465 19.5157C207.521 19.4734 207.585 19.4434 207.653 19.4276C207.721 19.4118 207.792 19.4106 207.861 19.4242C207.929 19.4354 207.994 19.4612 208.052 19.4998C208.11 19.5384 208.159 19.5889 208.196 19.648C211.657 25.1629 213.869 29.2329 213.89 29.2736C213.939 29.3529 213.965 29.4446 213.965 29.5382C213.965 29.6317 213.939 29.7234 213.89 29.8027C213.837 29.8699 213.769 29.9227 213.691 29.9565C213.613 29.9903 213.528 30.0039 213.443 29.996ZM198.563 27.2284C200.654 27.3505 204.653 27.7982 212.509 28.8259C211.718 27.4014 209.982 24.3692 207.627 20.6147C202.725 24.298 200.055 26.2109 198.563 27.2284Z" fill="#231F20"/>
<path d="M66.4103 197.335L60.8684 188.076L68.5317 181.126L66.4103 197.335Z" fill="#231F20"/>
<path d="M66.4 197.844C66.311 197.845 66.2232 197.822 66.1463 197.777C66.0694 197.733 66.0061 197.668 65.9635 197.589L60.4216 188.34C60.3621 188.239 60.3387 188.12 60.3553 188.004C60.3719 187.887 60.4275 187.78 60.5129 187.699L68.1863 180.75C68.2614 180.679 68.3569 180.634 68.459 180.621C68.5611 180.609 68.6647 180.628 68.7548 180.678C68.8474 180.727 68.9231 180.803 68.972 180.895C69.021 180.988 69.0407 181.093 69.0288 181.197L66.8973 197.396C66.8835 197.501 66.8383 197.598 66.7675 197.677C66.6968 197.755 66.604 197.809 66.5015 197.833L66.4 197.844ZM61.5076 188.167L66.0853 195.819L67.8413 182.428L61.5076 188.167Z" fill="#231F20"/>
<path d="M70.0033 199.278L159.161 212.017C160.989 212.257 162.842 211.837 164.389 210.832C165.937 209.827 167.077 208.303 167.606 206.533L213.758 33.4556C214.001 32.6463 214.054 31.7917 213.912 30.9586C213.771 30.1255 213.439 29.3365 212.942 28.6535C212.446 27.9705 211.798 27.4121 211.05 27.0218C210.303 26.6316 209.475 26.4202 208.632 26.4043L117.698 19.0884C115.896 18.9938 114.114 19.5107 112.641 20.5555C111.168 21.6004 110.089 23.1124 109.578 24.8475L65.385 192.135C65.1513 192.911 65.0891 193.728 65.2026 194.53C65.3161 195.333 65.6026 196.1 66.0421 196.78C66.4817 197.46 67.0638 198.036 67.7479 198.467C68.4319 198.899 69.2016 199.175 70.0033 199.278Z" fill="#231F20"/>
<path d="M160.176 212.597C159.813 212.599 159.45 212.575 159.09 212.526L69.9323 199.777C69.0653 199.67 68.2314 199.378 67.4871 198.92C66.7428 198.461 66.1055 197.848 65.6185 197.121C65.1357 196.377 64.8171 195.538 64.6841 194.661C64.551 193.784 64.6066 192.888 64.8471 192.034L109.111 24.6847C109.664 22.8481 110.813 21.2495 112.377 20.1432C113.94 19.037 115.827 18.4866 117.739 18.5796L208.673 25.926C209.607 25.9734 210.519 26.229 211.343 26.6743C212.166 27.1196 212.88 27.7435 213.433 28.5003C213.935 29.2357 214.268 30.0732 214.408 30.9528C214.548 31.8325 214.493 32.7323 214.245 33.5878L168.103 206.655C167.592 208.367 166.545 209.868 165.118 210.938C163.691 212.008 161.958 212.59 160.176 212.597ZM117.15 19.5463C115.547 19.5726 113.993 20.1106 112.716 21.0822C111.438 22.0537 110.502 23.4083 110.045 24.9492L65.8317 192.268C65.6247 192.985 65.5738 193.739 65.6823 194.478C65.7909 195.217 66.0564 195.924 66.461 196.551C66.8683 197.16 67.402 197.674 68.0257 198.057C68.6494 198.439 69.3482 198.683 70.0744 198.77L159.232 211.519C160.934 211.741 162.66 211.352 164.103 210.421C165.547 209.49 166.615 208.076 167.119 206.431L213.271 33.3335C213.473 32.6126 213.515 31.8558 213.392 31.1171C213.269 30.3784 212.985 29.6759 212.56 29.0599C212.086 28.4209 211.476 27.8963 210.773 27.5248C210.07 27.1533 209.294 26.9442 208.5 26.913L117.658 19.5666C117.489 19.5499 117.319 19.5431 117.15 19.5463Z" fill="#231F20"/>
<path d="M64.1975 189.724L153.355 202.463C155.183 202.703 157.036 202.282 158.584 201.278C160.131 200.273 161.271 198.749 161.8 196.979L207.952 23.9012C208.194 23.096 208.248 22.2458 208.109 21.4164C207.97 20.587 207.643 19.8009 207.152 19.1189C206.661 18.437 206.02 17.8775 205.279 17.484C204.537 17.0905 203.715 16.8735 202.877 16.8499L111.943 9.50351C110.141 9.40892 108.359 9.92576 106.886 10.9706C105.413 12.0155 104.334 13.5275 103.823 15.2626L59.5691 182.581C59.3336 183.357 59.2702 184.176 59.3835 184.979C59.4968 185.783 59.784 186.552 60.2249 187.232C60.6659 187.913 61.2499 188.488 61.9361 188.919C62.6224 189.349 63.3942 189.624 64.1975 189.724Z" fill="white"/>
<path d="M154.37 203.043C154.007 203.045 153.644 203.021 153.284 202.972L64.1264 190.222C63.2595 190.116 62.4256 189.823 61.6813 189.365C60.937 188.907 60.2997 188.294 59.8127 187.567C59.3317 186.822 59.0142 185.983 58.8812 185.106C58.7482 184.229 58.8028 183.334 59.0413 182.479L103.305 15.1303C103.855 13.2918 105.004 11.6911 106.568 10.5843C108.132 9.47756 110.021 8.9286 111.933 9.02527L202.867 16.3818C203.802 16.427 204.715 16.6817 205.538 17.1272C206.362 17.5727 207.076 18.1977 207.627 18.9561C208.131 19.6905 208.465 20.5281 208.605 21.4081C208.746 22.2881 208.689 23.1884 208.439 24.0436L162.297 197.152C161.777 198.854 160.727 200.344 159.3 201.404C157.874 202.464 156.146 203.039 154.37 203.043ZM111.344 9.9919C109.741 10.0197 108.189 10.5583 106.911 11.5297C105.634 12.5011 104.698 13.8548 104.239 15.3948L59.9852 182.713C59.7787 183.433 59.7281 184.188 59.8366 184.928C59.9451 185.669 60.2104 186.378 60.6146 187.007C61.0229 187.614 61.5571 188.126 62.1807 188.507C62.8043 188.888 63.5026 189.129 64.228 189.215L153.386 201.964C155.087 202.185 156.812 201.795 158.255 200.864C159.698 199.933 160.767 198.521 161.272 196.877L207.485 23.7791C207.694 23.0612 207.742 22.306 207.626 21.5674C207.51 20.8287 207.233 20.1248 206.815 19.5056C206.347 18.873 205.744 18.3523 205.051 17.9811C204.358 17.6099 203.591 17.3973 202.806 17.3586L111.872 10.0122L111.344 9.9919Z" fill="#231F20"/>
<path d="M199.142 35.2972L106.046 27.2081L70.3179 162.211L162.054 174.451L199.142 35.2972Z" fill="#E6E7E8"/>
<path d="M162.054 174.604L70.318 162.394C70.2954 162.39 70.2738 162.382 70.2547 162.37C70.2355 162.357 70.2191 162.341 70.2067 162.322C70.1942 162.302 70.1859 162.281 70.1824 162.258C70.1788 162.235 70.1801 162.212 70.1861 162.19L105.914 27.1877C105.921 27.1509 105.942 27.1181 105.972 27.0956C106.002 27.0731 106.039 27.0624 106.076 27.0656L199.172 35.1548C199.197 35.1559 199.221 35.163 199.242 35.1754C199.263 35.1878 199.281 35.2052 199.294 35.226C199.307 35.2457 199.313 35.2687 199.313 35.2922C199.313 35.3156 199.307 35.3386 199.294 35.3583L162.206 174.492C162.199 174.526 162.179 174.556 162.151 174.577C162.123 174.597 162.088 174.607 162.054 174.604ZM70.521 162.078L161.932 174.288L198.939 35.4397L106.168 27.3811L70.521 162.078Z" fill="#D1D3D4"/>
<path d="M101.052 188.727L118.449 191.179C119.554 191.313 120.67 191.051 121.599 190.438C122.528 189.825 123.21 188.901 123.524 187.831L125.26 181.319C125.404 180.823 125.437 180.3 125.356 179.789C125.275 179.278 125.082 178.791 124.791 178.364C124.5 177.937 124.117 177.58 123.672 177.319C123.227 177.057 122.729 176.898 122.215 176.852L104.787 174.482C103.692 174.358 102.589 174.627 101.671 175.239C100.754 175.851 100.082 176.769 99.7732 177.829L98.0579 184.28C97.9135 184.772 97.8792 185.29 97.9574 185.796C98.0357 186.303 98.2246 186.785 98.5107 187.21C98.7968 187.635 99.1729 187.991 99.6122 188.253C100.052 188.516 100.543 188.677 101.052 188.727Z" fill="white"/>
<path d="M119.038 191.728C118.818 191.744 118.598 191.744 118.378 191.728L100.981 189.276C100.404 189.212 99.8471 189.022 99.3509 188.719C98.8547 188.416 98.4309 188.008 98.1095 187.522C97.7881 187.037 97.5769 186.487 97.4908 185.911C97.4047 185.335 97.4459 184.747 97.6114 184.189L99.3165 177.738C99.6623 176.559 100.412 175.54 101.433 174.861C102.454 174.182 103.681 173.885 104.899 174.024L122.327 176.384C122.91 176.456 123.471 176.65 123.973 176.955C124.475 177.261 124.907 177.67 125.24 178.155C125.558 178.642 125.767 179.193 125.855 179.768C125.942 180.344 125.906 180.932 125.747 181.492L124.022 187.994C123.695 189.067 123.036 190.008 122.14 190.68C121.244 191.351 120.157 191.719 119.038 191.728ZM104.26 174.95C103.36 174.964 102.489 175.269 101.776 175.819C101.063 176.368 100.546 177.134 100.301 178.002L98.5858 184.453C98.4676 184.872 98.44 185.31 98.5048 185.74C98.5696 186.17 98.7252 186.581 98.9613 186.946C99.2039 187.31 99.5232 187.616 99.8968 187.843C100.27 188.07 100.689 188.212 101.123 188.259L118.52 190.711C119.502 190.833 120.496 190.602 121.323 190.057C122.151 189.513 122.758 188.692 123.037 187.74L124.763 181.228C124.884 180.809 124.914 180.368 124.851 179.936C124.788 179.505 124.633 179.091 124.397 178.725C124.147 178.355 123.82 178.046 123.437 177.817C123.055 177.589 122.627 177.447 122.185 177.402L104.757 175.031C104.593 174.994 104.427 174.967 104.26 174.95Z" fill="#E6E7E8"/>
<path d="M171.605 23.718L145.012 21.4897C144.945 21.4846 144.881 21.4662 144.822 21.4357C144.763 21.4051 144.71 21.363 144.668 21.3117C144.625 21.2605 144.593 21.2012 144.574 21.1374C144.554 21.0736 144.548 21.0066 144.555 20.9402C144.568 20.807 144.633 20.6842 144.735 20.5984C144.838 20.5127 144.97 20.471 145.103 20.4824L171.696 22.7107C171.831 22.7107 171.96 22.7643 172.055 22.8597C172.15 22.9551 172.204 23.0845 172.204 23.2194C172.204 23.3544 172.15 23.4838 172.055 23.5792C171.96 23.6746 171.831 23.7282 171.696 23.7282L171.605 23.718Z" fill="#E6E7E8"/>
<path d="M141.317 21.1845H141.266L137.744 20.8894C137.678 20.8842 137.613 20.8659 137.553 20.8355C137.493 20.8051 137.44 20.7631 137.397 20.712C137.353 20.661 137.321 20.6018 137.3 20.5379C137.28 20.4741 137.272 20.4068 137.277 20.3399C137.293 20.2068 137.358 20.0845 137.459 19.9977C137.561 19.9108 137.692 19.8658 137.825 19.8719L141.358 20.167C141.491 20.1799 141.613 20.2448 141.699 20.3476C141.784 20.4505 141.826 20.583 141.814 20.7164C141.807 20.8433 141.751 20.9624 141.658 21.0494C141.566 21.1364 141.444 21.1847 141.317 21.1845Z" fill="#E6E7E8"/>
<path d="M131.634 152.585C131.552 152.585 131.47 152.565 131.398 152.526C131.325 152.487 131.263 152.43 131.218 152.361L105.843 115.853C105.801 115.799 105.77 115.736 105.753 115.669C105.736 115.602 105.732 115.533 105.742 115.464C105.753 115.396 105.777 115.331 105.813 115.272C105.85 115.214 105.898 115.163 105.954 115.124C106.011 115.084 106.075 115.057 106.142 115.043C106.21 115.029 106.279 115.029 106.347 115.043C106.414 115.057 106.478 115.085 106.535 115.124C106.591 115.164 106.639 115.214 106.675 115.273L132.05 151.781C132.125 151.894 132.153 152.031 132.129 152.164C132.104 152.297 132.029 152.415 131.918 152.493C131.836 152.554 131.736 152.586 131.634 152.585Z" fill="white"/>
<path d="M117.718 136.346L85.0761 133.486C85.0093 133.481 84.9443 133.463 84.8847 133.433C84.825 133.402 84.772 133.36 84.7286 133.309C84.6852 133.258 84.6523 133.199 84.6318 133.135C84.6113 133.071 84.6036 133.004 84.6092 132.937C84.6221 132.803 84.6865 132.679 84.7887 132.592C84.891 132.504 85.0232 132.46 85.1573 132.469L117.81 135.328C117.942 135.344 118.063 135.409 118.148 135.511C118.233 135.614 118.275 135.745 118.267 135.878C118.261 135.944 118.243 136.01 118.213 136.069C118.182 136.129 118.141 136.182 118.09 136.226C118.039 136.269 117.98 136.302 117.916 136.323C117.852 136.343 117.785 136.351 117.718 136.346Z" fill="#231F20"/>
<path d="M109.253 141.738H109.202L82.914 139.368C82.8472 139.362 82.7822 139.344 82.7226 139.314C82.6629 139.283 82.6099 139.241 82.5665 139.19C82.5231 139.139 82.4902 139.08 82.4697 139.016C82.4492 138.952 82.4415 138.885 82.4471 138.818C82.4534 138.751 82.4729 138.686 82.5045 138.627C82.536 138.568 82.579 138.515 82.6309 138.473C82.6828 138.43 82.7427 138.398 82.8069 138.379C82.8712 138.36 82.9386 138.353 83.0053 138.36L109.294 140.731C109.361 140.736 109.426 140.755 109.485 140.785C109.545 140.815 109.598 140.857 109.641 140.908C109.685 140.96 109.718 141.019 109.738 141.083C109.759 141.146 109.766 141.214 109.761 141.281C109.746 141.406 109.686 141.521 109.593 141.605C109.5 141.689 109.379 141.737 109.253 141.738Z" fill="#231F20"/>
<path d="M180.851 80.3421L148.199 77.4829C148.064 77.4708 147.94 77.4055 147.853 77.3016C147.767 77.1976 147.725 77.0633 147.737 76.9284C147.749 76.7935 147.814 76.6689 147.918 76.5821C148.022 76.4952 148.155 76.4533 148.29 76.4654L180.932 79.3246C181.066 79.3376 181.19 79.4021 181.277 79.5046C181.364 79.6072 181.408 79.7397 181.399 79.8741C181.394 79.941 181.376 80.0062 181.346 80.066C181.315 80.1257 181.273 80.1789 181.222 80.2224C181.172 80.2659 181.113 80.2989 181.049 80.3194C180.985 80.34 180.918 80.3477 180.851 80.3421Z" fill="#231F20"/>
<path d="M172.386 85.7349H172.336L146.037 83.3641C145.904 83.3512 145.782 83.2863 145.696 83.1835C145.611 83.0806 145.569 82.9481 145.58 82.8147C145.585 82.7482 145.604 82.6834 145.634 82.6241C145.665 82.5649 145.707 82.5123 145.758 82.4696C145.809 82.4269 145.868 82.3949 145.932 82.3756C145.995 82.3562 146.062 82.3498 146.128 82.3568L172.427 84.7276C172.493 84.7327 172.558 84.751 172.617 84.7816C172.676 84.8122 172.729 84.8543 172.771 84.9056C172.814 84.9568 172.846 85.0161 172.865 85.0799C172.884 85.1437 172.891 85.2107 172.884 85.2771C172.871 85.4013 172.814 85.5165 172.722 85.601C172.63 85.6854 172.511 85.7331 172.386 85.7349Z" fill="#231F20"/>
<path d="M106.767 59.117L136.892 61.0808C137.305 61.1047 137.708 61.2184 138.072 61.4139C138.437 61.6095 138.755 61.8823 139.004 62.2133C139.253 62.5444 139.428 62.9258 139.515 63.3311C139.603 63.7365 139.601 64.156 139.511 64.5607L134.699 82.8758C134.504 83.7672 133.996 84.5586 133.268 85.1059C132.539 85.6531 131.639 85.9197 130.731 85.857L100.9 83.822C100.486 83.7916 100.084 83.6698 99.7232 83.4653C99.362 83.2608 99.0504 82.9787 98.8108 82.6393C98.5712 82.2999 98.4094 81.9115 98.3372 81.5021C98.2649 81.0926 98.2839 80.6722 98.3929 80.2709L102.869 61.9559C103.087 61.1017 103.596 60.3506 104.307 59.8323C105.019 59.314 105.889 59.061 106.767 59.117Z" fill="white"/>
<path d="M131.045 86.3556H130.68L100.859 84.3206C100.382 84.2872 99.9175 84.1497 99.4985 83.9177C99.0795 83.6857 98.716 83.3648 98.4335 82.9775C98.1411 82.5729 97.9389 82.11 97.8408 81.6201C97.7427 81.1303 97.751 80.625 97.8651 80.1386L102.341 61.8236C102.587 60.8484 103.165 59.9898 103.975 59.3955C104.784 58.8012 105.775 58.5084 106.777 58.5675L136.892 60.5415C137.373 60.5742 137.84 60.7104 138.264 60.9408C138.687 61.1713 139.056 61.4906 139.345 61.8769C139.634 62.2632 139.836 62.7075 139.939 63.1794C140.041 63.6514 140.04 64.1398 139.937 64.6115L135.116 82.9266C134.918 83.8726 134.41 84.7247 133.672 85.3465C132.934 85.9683 132.009 86.3236 131.045 86.3556ZM106.483 59.6054C105.761 59.621 105.065 59.8733 104.5 60.3235C103.936 60.7738 103.534 61.3972 103.356 62.0983L98.8903 80.4134C98.7976 80.7586 98.7823 81.1201 98.8454 81.4719C98.9086 81.8238 99.0487 82.1572 99.2557 82.4484C99.453 82.7166 99.7056 82.939 99.9964 83.1005C100.287 83.2621 100.609 83.3589 100.941 83.3845L130.771 85.4195C131.557 85.4766 132.336 85.2476 132.966 84.7747C133.597 84.3017 134.036 83.6166 134.202 82.8452L139.013 64.5301C139.083 64.2039 139.084 63.8663 139.014 63.54C138.944 63.2137 138.805 62.906 138.607 62.6376C138.4 62.3627 138.135 62.1359 137.832 61.9726C137.529 61.8093 137.195 61.7134 136.851 61.6913L106.736 59.7173H106.483V59.6054Z" fill="#231F20"/>
<path d="M116.399 81.0951C116.866 80.739 117.313 80.3829 117.769 80.0776C119.048 79.1212 120.337 78.185 121.616 77.2388C122.469 76.6181 123.311 75.9872 124.103 75.2852C124.814 74.6775 125.424 73.9595 125.91 73.1586C126.213 72.6191 126.452 72.0452 126.62 71.4492C126.765 70.9322 126.87 70.405 126.935 69.872C127.064 69.0235 126.899 68.1561 126.467 67.4152C126.034 66.6742 125.361 66.1047 124.56 65.802C123.702 65.4872 122.775 65.4156 121.879 65.5952C120.984 65.7747 120.155 66.1983 119.485 66.8195C119.108 67.1174 118.767 67.4589 118.47 67.837L118.409 67.9083V67.8065C118.034 66.9805 117.414 66.291 116.633 65.8325C115.918 65.4227 115.099 65.2316 114.278 65.2831C113.249 65.3346 112.26 65.6935 111.437 66.3137C110.614 66.9339 109.995 67.787 109.659 68.763C109.497 69.2745 109.398 69.8043 109.365 70.3401C109.294 70.9009 109.294 71.4684 109.365 72.0291C109.48 72.8597 109.782 73.6531 110.248 74.3491C110.726 75.0573 111.266 75.7213 111.862 76.3332C112.745 77.2693 113.648 78.185 114.542 79.1313C115.14 79.7724 115.729 80.4337 116.328 81.0951H116.399Z" fill="#D1D3D4"/>
<path d="M97.4387 101.211L120.286 103.724C120.599 103.758 120.901 103.858 121.171 104.02C121.441 104.182 121.673 104.4 121.851 104.66C122.028 104.921 122.148 105.217 122.2 105.528C122.252 105.839 122.237 106.157 122.154 106.462L117.881 120.208C117.705 120.878 117.294 121.461 116.723 121.852C116.153 122.242 115.461 122.414 114.775 122.335L92.1505 119.821C91.8368 119.784 91.5352 119.677 91.2674 119.509C90.9996 119.342 90.7722 119.116 90.6014 118.85C90.4307 118.583 90.3209 118.282 90.2799 117.968C90.2388 117.654 90.2676 117.335 90.3642 117.033L94.3734 103.277C94.564 102.628 94.9747 102.067 95.5344 101.69C96.0941 101.313 96.7677 101.143 97.4387 101.211Z" fill="white"/>
<path d="M115.12 122.874C114.981 122.884 114.842 122.884 114.704 122.874L92.0897 120.34C91.7098 120.296 91.344 120.17 91.018 119.969C90.6919 119.769 90.4134 119.5 90.2018 119.18C89.9862 118.851 89.8454 118.477 89.7892 118.087C89.7331 117.697 89.7631 117.299 89.877 116.921L93.937 103.155C94.1677 102.395 94.6536 101.738 95.3123 101.297C95.971 100.856 96.7618 100.656 97.5504 100.733L120.388 103.246C120.775 103.29 121.148 103.416 121.482 103.616C121.817 103.816 122.105 104.085 122.327 104.406C122.543 104.726 122.688 105.089 122.753 105.469C122.818 105.85 122.8 106.241 122.702 106.614L118.419 120.391C118.215 121.109 117.782 121.741 117.186 122.189C116.591 122.637 115.865 122.878 115.12 122.874ZM97.1038 101.7C96.5985 101.708 96.1091 101.877 95.7059 102.183C95.3028 102.488 95.0068 102.914 94.8606 103.399L90.8514 117.166C90.7798 117.403 90.7599 117.653 90.7932 117.899C90.8265 118.145 90.9121 118.38 91.0442 118.59C91.1774 118.785 91.3504 118.949 91.5516 119.072C91.7528 119.195 91.9777 119.273 92.2115 119.302L114.826 121.856C115.392 121.922 115.963 121.782 116.434 121.46C116.906 121.139 117.246 120.658 117.394 120.106L121.667 106.329C121.729 106.1 121.74 105.86 121.699 105.627C121.659 105.393 121.568 105.171 121.433 104.976C121.295 104.774 121.115 104.604 120.904 104.479C120.694 104.355 120.459 104.278 120.215 104.254L97.388 101.74C97.2951 101.716 97.1998 101.702 97.1038 101.7Z" fill="#231F20"/>
<path d="M143.916 92.3487L175.563 95.564C175.878 95.5683 176.187 95.643 176.469 95.7826C176.751 95.9222 176.999 96.1232 177.193 96.3709C177.388 96.6186 177.524 96.9068 177.594 97.2143C177.663 97.5219 177.663 97.841 177.593 98.1485L172.356 117.685C172.127 118.355 171.673 118.924 171.071 119.296C170.469 119.667 169.757 119.817 169.057 119.72L137.43 115.65C137.127 115.634 136.831 115.551 136.565 115.406C136.298 115.262 136.067 115.059 135.889 114.813C135.711 114.567 135.59 114.284 135.535 113.985C135.48 113.686 135.493 113.379 135.572 113.085L140.769 94.343C140.987 93.7002 141.418 93.1517 141.991 92.7889C142.563 92.426 143.243 92.2707 143.916 92.3487Z" fill="white"/>
<path d="M169.483 120.198C169.331 120.208 169.179 120.208 169.027 120.198L137.409 116.128C137.006 116.096 136.614 115.974 136.263 115.772C135.912 115.57 135.61 115.291 135.379 114.958C135.181 114.662 135.051 114.326 134.999 113.975C134.946 113.623 134.972 113.263 135.075 112.923L140.272 94.1802C140.519 93.4308 141.016 92.7897 141.68 92.3652C142.344 91.9407 143.133 91.7588 143.916 91.8502L175.563 95.0553C175.99 95.0856 176.406 95.2087 176.781 95.416C177.156 95.6233 177.482 95.9099 177.735 96.2559C177.938 96.5492 178.073 96.8838 178.131 97.2357C178.189 97.5876 178.168 97.948 178.07 98.291L172.884 117.786C172.65 118.501 172.194 119.122 171.581 119.556C170.969 119.99 170.233 120.215 169.483 120.198ZM143.631 92.8371C143.124 92.8292 142.627 92.9798 142.208 93.2678C141.79 93.5558 141.472 93.9672 141.297 94.4448L136.1 113.187C136.044 113.387 136.03 113.596 136.06 113.801C136.09 114.006 136.162 114.203 136.273 114.378C136.419 114.583 136.608 114.754 136.828 114.879C137.047 115.004 137.29 115.079 137.541 115.1L169.159 119.17C169.733 119.262 170.322 119.151 170.824 118.856C171.325 118.561 171.709 118.1 171.909 117.552L177.136 98.0162C177.195 97.8177 177.208 97.6083 177.175 97.4039C177.142 97.1995 177.062 97.0054 176.944 96.8359C176.776 96.6112 176.56 96.4263 176.313 96.2944C176.066 96.1626 175.792 96.0869 175.512 96.0728L143.865 92.8575H143.631V92.8371Z" fill="#231F20"/>
<path d="M160.267 113.91L164.023 114.378L166.672 104.559L162.916 104.142L160.267 113.91Z" fill="#D1D3D4"/>
<path d="M164.023 114.54L160.267 114.083C160.245 114.079 160.223 114.071 160.204 114.058C160.185 114.046 160.168 114.03 160.156 114.01C160.143 113.991 160.135 113.97 160.132 113.947C160.128 113.924 160.129 113.901 160.135 113.879L162.784 104.111C162.792 104.072 162.814 104.038 162.846 104.015C162.878 103.992 162.918 103.983 162.957 103.989L166.712 104.416C166.735 104.419 166.757 104.427 166.776 104.439C166.796 104.451 166.812 104.468 166.824 104.488C166.84 104.527 166.84 104.57 166.824 104.61L164.175 114.429C164.164 114.461 164.144 114.489 164.117 114.509C164.089 114.529 164.057 114.54 164.023 114.54ZM160.47 113.777L163.901 114.205L166.469 104.701L163.038 104.315L160.47 113.777Z" fill="#D1D3D4"/>
<path d="M161.282 104.793C161.282 104.793 158.237 103.674 157.425 101.74C156.613 99.807 157.151 96.724 156.694 96.5103C156.27 96.3846 155.816 96.3934 155.397 96.5354C154.977 96.6775 154.612 96.9458 154.35 97.3039C153.619 98.24 153.193 101.109 153.802 103.073C153.802 103.073 149.742 102.575 147.915 102.371C146.088 102.168 145.326 103.704 146.209 104.467C146.209 104.467 144.717 104.467 144.9 105.81C145.083 107.153 145.59 107.255 146.392 107.357C146.392 107.357 145.377 107.469 145.377 108.456C145.377 109.443 146.615 109.829 146.615 109.829C146.454 109.868 146.302 109.942 146.173 110.046C146.044 110.151 145.94 110.284 145.869 110.434C145.797 110.585 145.761 110.749 145.762 110.916C145.763 111.083 145.801 111.247 145.874 111.396C146.423 112.556 148.371 112.689 152.979 112.974C157.588 113.258 159.181 112.424 159.181 112.424L161.282 104.793Z" fill="#D1D3D4"/>
<path d="M154.868 113.238C154.309 113.238 153.69 113.238 152.99 113.177C148.412 112.892 146.321 112.76 145.722 111.508C145.64 111.353 145.592 111.182 145.582 111.006C145.571 110.831 145.599 110.655 145.661 110.491C145.784 110.237 145.983 110.027 146.23 109.891C145.955 109.771 145.717 109.581 145.539 109.34C145.361 109.099 145.249 108.815 145.215 108.517C145.203 108.313 145.248 108.11 145.345 107.93C145.441 107.75 145.586 107.601 145.763 107.499C145.215 107.337 144.87 106.991 144.748 105.922C144.716 105.744 144.723 105.56 144.768 105.384C144.814 105.209 144.897 105.045 145.012 104.905C145.244 104.653 145.556 104.491 145.895 104.447C145.779 104.281 145.709 104.087 145.691 103.886C145.674 103.684 145.709 103.481 145.793 103.297C145.992 102.915 146.31 102.609 146.699 102.426C147.087 102.242 147.525 102.191 147.945 102.28C149.498 102.453 152.695 102.839 153.599 102.951C153.071 100.916 153.487 98.2198 154.238 97.2633C154.519 96.8846 154.909 96.6009 155.355 96.45C155.801 96.2991 156.283 96.2882 156.735 96.4188C157.009 96.551 157.019 97.0394 157.04 98.1078C156.977 99.3359 157.146 100.565 157.537 101.73C158.349 103.541 161.282 104.65 161.313 104.661C161.349 104.676 161.378 104.705 161.395 104.74C161.411 104.776 161.415 104.816 161.404 104.854L159.374 112.526C159.362 112.564 159.337 112.597 159.303 112.617C159.222 112.628 158.085 113.238 154.868 113.238ZM147.6 102.524C147.296 102.495 146.991 102.558 146.722 102.702C146.453 102.847 146.232 103.068 146.088 103.338C146.007 103.509 145.987 103.703 146.029 103.887C146.071 104.072 146.174 104.236 146.321 104.355C146.34 104.38 146.35 104.411 146.35 104.442C146.35 104.473 146.34 104.503 146.321 104.528C146.311 104.558 146.292 104.583 146.266 104.602C146.241 104.62 146.21 104.63 146.179 104.63C145.821 104.635 145.478 104.773 145.215 105.017C145.127 105.125 145.064 105.251 145.031 105.387C144.998 105.522 144.995 105.663 145.022 105.8C145.184 107.062 145.641 107.113 146.382 107.204C146.422 107.209 146.458 107.229 146.484 107.259C146.51 107.289 146.525 107.327 146.524 107.367C146.524 107.406 146.51 107.443 146.483 107.472C146.457 107.5 146.421 107.517 146.382 107.52C146.382 107.52 145.479 107.642 145.509 108.466C145.54 109.29 146.626 109.687 146.636 109.687C146.666 109.701 146.692 109.722 146.712 109.749C146.731 109.775 146.744 109.807 146.748 109.84C146.747 109.874 146.736 109.907 146.716 109.934C146.696 109.961 146.668 109.982 146.636 109.992C146.334 110.093 146.08 110.303 145.925 110.582C145.879 110.705 145.86 110.836 145.871 110.966C145.881 111.096 145.921 111.222 145.986 111.335C146.504 112.424 148.534 112.546 152.98 112.831C157.04 113.085 158.714 112.455 159.07 112.322L161.1 104.854C160.491 104.61 158.055 103.531 157.283 101.801C156.87 100.599 156.691 99.3274 156.755 98.057C156.791 97.582 156.75 97.1044 156.634 96.6426C156.242 96.54 155.83 96.5569 155.448 96.691C155.066 96.8252 154.734 97.0705 154.492 97.3956C153.771 98.3113 153.386 101.15 153.964 103.033C153.979 103.055 153.986 103.082 153.986 103.109C153.986 103.136 153.979 103.162 153.964 103.185C153.946 103.205 153.924 103.219 153.899 103.228C153.875 103.237 153.848 103.24 153.822 103.236C153.822 103.236 149.762 102.737 147.945 102.534L147.6 102.524Z" fill="#D1D3D4"/>
<path d="M122.113 159.921L156.623 163.91C157.895 164 159.158 163.643 160.196 162.9C161.233 162.157 161.98 161.075 162.307 159.84L167.738 139.296C167.918 138.735 167.974 138.141 167.903 137.556C167.831 136.97 167.634 136.407 167.324 135.906C167.014 135.405 166.599 134.977 166.108 134.652C165.617 134.328 165.061 134.114 164.48 134.026L129.878 129.61C128.573 129.492 127.269 129.844 126.199 130.603C125.13 131.362 124.365 132.478 124.042 133.751L118.733 154.691C118.56 155.259 118.513 155.858 118.595 156.446C118.677 157.034 118.886 157.597 119.208 158.095C119.53 158.594 119.957 159.015 120.459 159.331C120.961 159.646 121.526 159.848 122.113 159.921Z" fill="white"/>
<path d="M157.1 164.449H156.522L122.012 160.46C121.37 160.398 120.749 160.195 120.193 159.866C119.637 159.537 119.16 159.091 118.794 158.558C118.411 157.983 118.155 157.331 118.045 156.648C117.934 155.966 117.972 155.267 118.155 154.6L123.463 133.659C123.83 132.273 124.672 131.061 125.841 130.235C127.01 129.409 128.432 129.022 129.858 129.142L164.459 133.547C165.082 133.624 165.682 133.833 166.218 134.161C166.754 134.49 167.213 134.929 167.565 135.45C167.937 136.04 168.181 136.702 168.281 137.393C168.38 138.084 168.334 138.788 168.144 139.459L162.713 160.003C162.365 161.243 161.635 162.34 160.627 163.139C159.619 163.938 158.384 164.396 157.1 164.449ZM122.164 159.423L156.674 163.411C157.825 163.483 158.966 163.154 159.902 162.479C160.838 161.804 161.512 160.824 161.81 159.707L167.2 139.154C167.361 138.624 167.404 138.065 167.327 137.517C167.25 136.969 167.054 136.444 166.753 135.979C166.484 135.579 166.131 135.241 165.719 134.99C165.308 134.739 164.847 134.58 164.368 134.524L129.766 130.108C128.585 130.009 127.406 130.332 126.44 131.022C125.473 131.711 124.782 132.721 124.488 133.873L119.18 154.813C119.033 155.34 119 155.893 119.084 156.433C119.168 156.974 119.367 157.49 119.667 157.947C119.953 158.359 120.324 158.704 120.755 158.959C121.186 159.213 121.666 159.372 122.164 159.423Z" fill="#231F20"/>
<path d="M133.299 146.388L145.479 156.319C145.715 156.47 145.985 156.561 146.264 156.585C146.543 156.609 146.824 156.565 147.083 156.457C147.342 156.349 147.571 156.181 147.751 155.966C147.931 155.75 148.057 155.495 148.118 155.22L152.37 138.94C152.456 138.68 152.463 138.401 152.39 138.136C152.318 137.872 152.17 137.636 151.964 137.455C151.759 137.275 151.505 137.16 151.234 137.123C150.963 137.087 150.688 137.132 150.442 137.251L133.979 143.631C133.712 143.722 133.472 143.88 133.282 144.088C133.091 144.296 132.956 144.549 132.888 144.824C132.821 145.098 132.823 145.385 132.894 145.658C132.966 145.932 133.105 146.183 133.299 146.388Z" fill="#D1D3D4"/>
<path d="M145.57 66.5346L182.029 70.3401C182.681 70.3604 183.319 70.152 183.835 69.7507C184.35 69.3495 184.709 68.7807 184.851 68.1423L190.778 43.7222C190.873 43.4428 190.903 43.1456 190.868 42.8528C190.832 42.5599 190.731 42.2789 190.572 42.0306C190.413 41.7823 190.2 41.573 189.949 41.4185C189.699 41.2639 189.416 41.1679 189.124 41.1377L152.746 38.0852C152.119 38.0854 151.51 38.2989 151.02 38.6907C150.53 39.0825 150.186 39.6295 150.046 40.2423L144.058 63.9603C143.958 64.2285 143.919 64.5157 143.944 64.8009C143.969 65.0861 144.057 65.3621 144.202 65.6088C144.347 65.8555 144.545 66.0666 144.782 66.2268C145.018 66.3869 145.288 66.4921 145.57 66.5346Z" fill="white"/>
<path d="M152.543 38.075H152.675L189.053 41.1276C189.346 41.1578 189.628 41.2537 189.878 41.4083C190.129 41.5629 190.342 41.7721 190.501 42.0204C190.66 42.2687 190.761 42.5497 190.797 42.8426C190.832 43.1355 190.802 43.4326 190.707 43.712L184.78 68.1321C184.642 68.7338 184.313 69.2743 183.843 69.6725C183.372 70.0707 182.786 70.305 182.171 70.3401H181.958L145.57 66.5346C145.288 66.4921 145.018 66.3869 144.782 66.2268C144.545 66.0666 144.347 65.8555 144.202 65.6088C144.057 65.3621 143.969 65.0861 143.944 64.8009C143.919 64.5157 143.958 64.2286 144.058 63.9604L150.046 40.2423C150.183 39.657 150.504 39.1309 150.96 38.741C151.417 38.3511 151.986 38.1177 152.584 38.075M152.584 37.0575C151.761 37.1018 150.973 37.4108 150.339 37.9386C149.705 38.4664 149.257 39.185 149.062 39.988L143.073 63.706C142.948 64.1582 142.922 64.6321 142.995 65.0955C143.069 65.559 143.241 66.0012 143.5 66.3922C143.723 66.7171 144.016 66.9886 144.356 67.1874C144.696 67.3861 145.076 67.5072 145.469 67.542L181.917 71.3474C182.025 71.3573 182.134 71.3573 182.242 71.3474C183.085 71.3113 183.893 70.9992 184.542 70.4589C185.191 69.9186 185.645 69.1799 185.835 68.356L191.763 43.9359C191.882 43.4824 191.902 43.0086 191.821 42.5467C191.74 42.0848 191.561 41.6459 191.296 41.2598C191.057 40.9219 190.747 40.6409 190.387 40.4369C190.027 40.2329 189.627 40.1109 189.215 40.0795L152.838 37.027L152.584 37.0575Z" fill="#231F20"/>
<path d="M165.87 59.5443C165.79 59.5451 165.71 59.5272 165.638 59.4918C165.566 59.4565 165.503 59.4048 165.454 59.3408L150.645 38.8992C150.568 38.7891 150.536 38.6533 150.557 38.5204C150.578 38.3876 150.65 38.268 150.757 38.1869C150.811 38.1479 150.873 38.1201 150.938 38.1051C151.004 38.0901 151.071 38.0882 151.137 38.0995C151.203 38.1109 151.267 38.1352 151.323 38.1712C151.38 38.2072 151.429 38.254 151.467 38.309L165.911 58.3335L190.159 41.4735C190.271 41.3983 190.408 41.37 190.541 41.3947C190.674 41.4195 190.792 41.4952 190.869 41.6057C190.908 41.661 190.935 41.7234 190.949 41.7893C190.963 41.8552 190.964 41.9233 190.952 41.9895C190.94 42.0558 190.915 42.119 190.878 42.1753C190.841 42.2317 190.793 42.2802 190.738 42.318L166.124 59.4528C166.049 59.5052 165.961 59.5368 165.87 59.5443Z" fill="#D1D3D4"/>
<path d="M144.261 66.2701C144.177 66.271 144.094 66.2511 144.02 66.212C143.945 66.1729 143.882 66.116 143.835 66.0462C143.761 65.9325 143.734 65.7942 143.761 65.661C143.787 65.5278 143.865 65.4104 143.977 65.334L161.962 53.6835C162.074 53.6099 162.211 53.5835 162.342 53.6102C162.473 53.6369 162.588 53.7145 162.663 53.826C162.737 53.9397 162.763 54.078 162.737 54.2112C162.71 54.3443 162.633 54.4618 162.521 54.5382L144.555 66.1887C144.469 66.2474 144.365 66.276 144.261 66.2701Z" fill="#D1D3D4"/>
<path d="M183.643 70.3605C183.566 70.3609 183.491 70.3436 183.422 70.3101C183.354 70.2766 183.294 70.2277 183.247 70.1671L171.31 55.2607C171.228 55.1553 171.189 55.0212 171.205 54.8878C171.22 54.7544 171.287 54.6324 171.392 54.5484C171.443 54.5059 171.503 54.4743 171.567 54.4553C171.631 54.4364 171.698 54.4305 171.764 54.4381C171.83 54.4457 171.895 54.4666 171.953 54.4995C172.011 54.5325 172.062 54.5768 172.102 54.6298L184.039 69.5363C184.082 69.5873 184.114 69.6464 184.134 69.7102C184.153 69.774 184.16 69.8411 184.153 69.9075C184.147 69.9739 184.127 70.0383 184.095 70.0969C184.063 70.1555 184.02 70.2071 183.968 70.2485C183.873 70.3185 183.76 70.3576 183.643 70.3605Z" fill="#D1D3D4"/>
<path d="M72.9366 115.558C75.4221 110.59 78.8289 106.142 82.975 102.453C89.6334 96.6833 93.6223 92.4911 91.5314 91.3515C89.4405 90.2119 82.5182 95.1367 82.5182 95.1367L87.7556 75.9058C87.7556 75.9058 76.2151 83.5269 72.9366 90.0084C69.6582 96.4899 63.1926 110.165 63.1926 110.165L72.9366 115.558Z" fill="white"/>
<path d="M72.9367 116.067C72.8517 116.067 72.7679 116.046 72.6931 116.006L62.9491 110.603C62.8366 110.54 62.7519 110.437 62.7123 110.314C62.6727 110.191 62.6812 110.058 62.736 109.941C62.7969 109.809 69.2421 96.1949 72.4901 89.7846C75.7381 83.3743 86.9945 75.7939 87.4715 75.4785C87.5577 75.4206 87.6595 75.3905 87.7633 75.3924C87.867 75.3942 87.9677 75.4279 88.0517 75.4889C88.1358 75.5499 88.1992 75.6352 88.2334 75.7334C88.2675 75.8316 88.2709 75.938 88.2429 76.0381L83.3709 93.936C85.5938 92.4708 89.9481 89.866 91.7751 90.8835C91.9992 90.9923 92.1916 91.1572 92.3338 91.3621C92.476 91.567 92.5633 91.8052 92.5871 92.0536C92.78 93.8241 90.0902 96.9377 83.31 102.819C79.2219 106.463 75.8603 110.851 73.4036 115.751C73.3747 115.816 73.3327 115.874 73.2803 115.921C73.2278 115.968 73.1661 116.004 73.0991 116.026C73.048 116.05 72.9929 116.064 72.9367 116.067ZM63.8525 109.962L72.7134 114.866C75.2239 110.033 78.5872 105.697 82.6401 102.066C84.9036 100.112 91.7751 94.1395 91.5823 92.1859C91.5722 92.101 91.5396 92.0203 91.4878 91.9523C91.436 91.8843 91.367 91.8314 91.2879 91.7993C90.0293 91.1074 85.5735 93.5799 82.8127 95.5539C82.7263 95.6117 82.6246 95.6422 82.5208 95.6413C82.417 95.6405 82.3158 95.6083 82.2304 95.5491C82.145 95.4898 82.0794 95.4062 82.0421 95.3091C82.0047 95.2119 81.9974 95.1058 82.021 95.0044L86.893 77.1167C83.9292 79.2127 75.9716 85.1448 73.3935 90.2425C70.4601 96.0016 64.9791 107.611 63.8525 109.952V109.962Z" fill="#231F20"/>
<path d="M143.205 40.456L110.563 37.5968C110.429 37.5838 110.305 37.5193 110.218 37.4167C110.131 37.3142 110.087 37.1817 110.096 37.0473C110.101 36.9804 110.119 36.9152 110.15 36.8554C110.18 36.7957 110.222 36.7425 110.273 36.699C110.324 36.6555 110.383 36.6225 110.446 36.602C110.51 36.5814 110.577 36.5737 110.644 36.5793L143.246 39.4385C143.38 39.4385 143.509 39.4921 143.605 39.5875C143.7 39.6829 143.753 39.8123 143.753 39.9472C143.753 40.0821 143.7 40.2115 143.605 40.3069C143.509 40.4024 143.38 40.456 143.246 40.456H143.205Z" fill="#231F20"/>
<path d="M134.73 45.808L108.431 43.4373C108.365 43.4322 108.3 43.4138 108.241 43.3833C108.182 43.3527 108.13 43.3105 108.087 43.2593C108.044 43.2081 108.012 43.1488 107.993 43.085C107.974 43.0212 107.967 42.9541 107.974 42.8878C107.98 42.8209 107.998 42.7557 108.028 42.6959C108.059 42.6361 108.1 42.583 108.151 42.5395C108.202 42.496 108.261 42.463 108.325 42.4424C108.389 42.4219 108.456 42.4142 108.523 42.4198L134.821 44.8007C134.956 44.8075 135.082 44.8675 135.173 44.9677C135.263 45.0679 135.31 45.2 135.303 45.3349C135.297 45.4698 135.237 45.5966 135.137 45.6872C135.037 45.7778 134.905 45.825 134.77 45.8182L134.73 45.808Z" fill="#231F20"/>
<path d="M63.426 44.8821C63.426 44.8821 70.2976 56.2375 68.704 58.476C67.1105 60.7145 62.137 58.9949 62.137 58.9949" fill="white"/>
<path d="M65.7301 60.1345C64.4533 60.1016 63.1882 59.8823 61.9746 59.4833C61.908 59.4613 61.8463 59.4263 61.7931 59.3803C61.74 59.3344 61.6964 59.2784 61.6648 59.2156C61.6332 59.1528 61.6143 59.0843 61.6091 59.0141C61.6039 58.944 61.6126 58.8735 61.6346 58.8067C61.6566 58.7399 61.6915 58.678 61.7373 58.6248C61.7831 58.5715 61.839 58.5277 61.9016 58.4961C61.9643 58.4644 62.0326 58.4455 62.1026 58.4403C62.1726 58.4351 62.2429 58.4438 62.3096 58.4658C63.5885 58.9033 67.1613 59.7072 68.2879 58.13C69.3029 56.7767 65.7707 49.6949 62.9896 45.0958C62.9546 45.0384 62.9313 44.9747 62.921 44.9082C62.9108 44.8418 62.9138 44.774 62.9298 44.7087C62.9459 44.6434 62.9746 44.5819 63.0145 44.5279C63.0544 44.4738 63.1046 44.4282 63.1622 44.3937C63.2784 44.3256 63.4166 44.3055 63.5473 44.3378C63.6781 44.3701 63.7911 44.4522 63.8625 44.5667C65.0399 46.5101 70.8254 56.329 69.1101 58.7202C68.7009 59.2101 68.1803 59.5943 67.5921 59.8404C67.0039 60.0865 66.3653 60.1874 65.7301 60.1345Z" fill="#231F20"/>
<path d="M23.77 65.7715C18.695 65.8631 14.2797 64.0621 8.76828 60.684C7.20518 59.7377 5.41879 58.2318 5.91614 56.4817C6.19576 55.926 6.40706 55.3383 6.54543 54.7316C6.54543 53.7141 5.53043 53.0222 4.70828 52.4117C3.34353 51.3859 2.29637 49.9938 1.68795 48.3963C1.07953 46.7988 0.934718 45.0613 1.27026 43.3848C1.60581 41.7082 2.40799 40.1612 3.58402 38.9226C4.76005 37.6841 6.26185 36.8046 7.91568 36.386C6.45656 34.9298 5.43863 33.0892 4.97969 31.0772C4.52075 29.0652 4.63958 26.964 5.32242 25.0169C6.00527 23.0698 7.22421 21.3563 8.83815 20.0748C10.4521 18.7934 12.395 17.9963 14.4421 17.7758C12.9907 17.9284 16.0052 9.63576 16.4721 8.86246C18.3098 6.01313 21.0473 3.86361 24.247 2.75743C26.3622 2.04251 28.6073 1.79778 30.8263 2.04026C33.0453 2.28274 35.1851 3.00662 37.0969 4.16159C37.98 1.92308 40.487 0.671544 42.8824 0.569794C45.2891 0.61862 47.661 1.15509 49.8555 2.14693C52.5249 3.16443 55.4177 4.46684 56.5748 7.07165C56.7546 7.63959 57.0291 8.17286 57.3868 8.64878C57.9724 9.12975 58.6714 9.45206 59.4168 9.58489C67.4556 12.0981 69.0593 24.2268 63.5377 29.3855C62.5227 30.2911 61.5077 29.8434 60.6957 30.9627C60.1679 31.7054 60.0968 33.7608 59.8126 34.7071C59.0963 37.0044 58.151 39.2236 56.9909 41.331C54.4388 45.7492 51.3723 49.8479 47.8559 53.5411C43.5958 58.3374 38.2193 62.004 32.2046 64.2147C29.4941 65.1819 26.6464 65.7074 23.77 65.7715Z" fill="white"/>
<path d="M23.3845 66.2802C18.8271 66.2802 14.4829 64.7743 8.52485 61.1317C5.39865 59.2289 5.1246 57.4788 5.47985 56.3494C5.56255 56.0864 5.66782 55.8311 5.7945 55.5863C5.9509 55.3213 6.0511 55.0269 6.08885 54.7214C6.08885 54.0397 5.37835 53.5004 4.66785 52.9815L4.46485 52.8288C3.06835 51.7928 1.98053 50.3943 1.31874 48.784C0.65694 47.1737 0.446293 45.4128 0.70952 43.6914C0.972747 41.9699 1.69985 40.3531 2.8124 39.0155C3.92496 37.6779 5.38072 36.6702 7.02265 36.1011C5.7042 34.575 4.81219 32.7263 4.43726 30.7428C4.06232 28.7592 4.21784 26.7116 4.88798 24.8078C5.55813 22.904 6.71904 21.212 8.25274 19.9036C9.78645 18.5952 11.6383 17.7172 13.6201 17.3586C13.3664 15.171 15.7821 9.01509 16.0663 8.55721C17.9635 5.59849 20.7986 3.3657 24.1152 2.21816C26.21 1.50789 28.4296 1.24419 30.632 1.44393C32.8343 1.64368 34.9707 2.30249 36.9043 3.37811C37.5409 2.35783 38.4227 1.51396 39.4689 0.923786C40.5152 0.33361 41.6924 0.0159871 42.8927 0C45.3692 0.039116 47.8114 0.586241 50.0688 1.60766C52.7992 2.62516 55.8137 3.99879 57.0622 6.8071L57.2448 7.22428C57.3618 7.59305 57.544 7.93771 57.7828 8.24178C58.2064 8.59665 58.7127 8.83819 59.2546 8.94386L59.5793 9.03544C63.2131 10.175 65.9637 13.4005 66.9381 17.6741C67.9531 22.2732 66.796 26.9944 63.8931 29.701C63.4401 30.0945 62.8956 30.3674 62.3097 30.4946C61.8313 30.5623 61.3981 30.8141 61.1018 31.1967C60.8088 31.8817 60.6304 32.6105 60.574 33.3538C60.5127 33.8373 60.4212 34.3165 60.3 34.7885C59.5615 37.1099 58.5889 39.3498 57.3971 41.4735C54.8044 45.8937 51.7008 49.9921 48.1505 53.6835C43.836 58.5416 38.3893 62.2539 32.2962 64.4894C29.5721 65.5038 26.7044 66.0774 23.8006 66.1887H23.3845V66.2802ZM14.4931 18.2439C12.5431 18.4577 10.6932 19.2199 9.15682 20.4424C7.62039 21.6648 6.46001 23.2978 5.80956 25.153C5.1591 27.0081 5.04506 29.0098 5.4806 30.9271C5.91614 32.8444 6.8835 34.5992 8.2711 35.9891C8.33543 36.0529 8.38158 36.1328 8.40478 36.2204C8.42798 36.3081 8.42738 36.4004 8.40305 36.4877C8.37796 36.5736 8.33112 36.6516 8.26709 36.714C8.20306 36.7764 8.12403 36.8211 8.03765 36.8438C6.46733 37.2336 5.03983 38.0627 3.92145 39.2344C2.80308 40.4062 2.03988 41.8724 1.72077 43.4623C1.40167 45.0521 1.5398 46.7002 2.11907 48.2144C2.69834 49.7286 3.69491 51.0466 4.99265 52.0148L5.19565 52.1573C6.02795 52.778 7.0734 53.5411 7.0328 54.7621C6.9922 55.2062 6.85723 55.6364 6.63695 56.0238C6.53965 56.2183 6.4549 56.4188 6.3832 56.6241C5.9772 58.0588 7.59105 59.3917 9.01205 60.2668C14.9701 63.8993 19.2433 65.3543 23.7397 65.2627C26.5368 65.1534 29.2986 64.597 31.9206 63.6144C37.8585 61.4424 43.164 57.8232 47.3588 53.0832C50.8632 49.4356 53.9291 45.3889 56.4938 41.0258C57.6459 38.9491 58.5845 36.7604 59.2952 34.4934C59.4 34.0675 59.4813 33.6361 59.5388 33.2012C59.5991 32.2972 59.8408 31.4147 60.2493 30.6065C60.676 30.032 61.3029 29.6396 62.0052 29.5076C62.4334 29.4268 62.8327 29.2337 63.1623 28.948C65.8013 26.4958 66.8772 22.1511 65.913 17.9081C65.0096 13.9296 62.5736 11.0501 59.2343 10.0122L58.9298 9.91049C58.2079 9.75814 57.5432 9.40558 57.0114 8.89299C56.6751 8.50314 56.4198 8.05 56.2603 7.56005C56.2603 7.43795 56.1588 7.30568 56.0979 7.18358C55.0119 4.73139 52.2104 3.49004 49.6628 2.52341C47.534 1.55332 45.2307 1.02713 42.8927 0.976803C40.8627 1.06838 38.4065 2.11641 37.5539 4.25317C37.5251 4.32177 37.4821 4.38351 37.4279 4.43436C37.3737 4.4852 37.3094 4.52401 37.2392 4.54824C37.1023 4.60264 36.9498 4.60264 36.8129 4.54824C34.9685 3.42618 32.9009 2.72345 30.7561 2.48963C28.6113 2.25581 26.4414 2.49658 24.3995 3.19496C21.3038 4.26269 18.6577 6.3454 16.8885 9.10666C16.4317 9.84944 14.2901 16.0867 14.5641 17.2467C14.6635 17.2729 14.7527 17.3288 14.8198 17.4069C14.8868 17.485 14.9286 17.5817 14.9397 17.6842C14.9539 17.8177 14.915 17.9514 14.8313 18.0563C14.7477 18.1611 14.6261 18.2285 14.4931 18.2439Z" fill="#231F20"/>
<path d="M62.3401 29.6501C62.705 29.8522 63.0287 30.1214 63.2942 30.4437C64.4158 31.8944 65.118 33.6262 65.3242 35.4498C65.9129 39.1841 65.2125 42.9794 65.04 46.7238C64.7017 54.0837 64.1942 61.4267 63.5175 68.7528C63.0912 73.4028 51.0431 73.0365 48.9725 71.5611L50.1601 90.0491L25.2317 79.345L26.8557 64.1536C26.8557 64.1536 35.0467 64.5301 40.1116 55.2098C41.5458 52.3924 42.5711 49.3842 43.1566 46.2761C43.7351 43.6306 44.9836 39.8556 44.9125 37.1796C44.8253 35.9774 44.5619 34.7946 44.131 33.6692C45.1486 34.1976 46.3308 34.3107 47.4297 33.9846C47.818 33.7796 48.1559 33.4907 48.4192 33.1387C48.6825 32.7868 48.8646 32.3807 48.9522 31.9496C49.1113 31.0734 49.1387 30.1783 49.0334 29.2939C49.5588 29.6153 50.1447 29.8246 50.7545 29.9088C51.3642 29.9929 51.9847 29.9501 52.5772 29.783C53.1697 29.6159 53.7215 29.3281 54.198 28.9375C54.6745 28.547 55.0656 28.0622 55.3467 27.5133C55.6208 28.6733 57.0316 29.0701 58.209 29.2532C59.8838 29.4974 61.1424 28.9989 62.3401 29.6501Z" fill="white"/>
<path d="M50.1601 90.5579C50.0932 90.5732 50.0239 90.5732 49.9571 90.5579L25.0287 79.8537C24.9296 79.8079 24.8471 79.7324 24.7925 79.6377C24.738 79.5429 24.7141 79.4336 24.7242 79.3246L26.3482 64.1435C26.3633 64.0149 26.4258 63.8967 26.5235 63.8119C26.6211 63.7272 26.7469 63.6822 26.876 63.6856C27.1906 63.6856 34.8234 63.9196 39.665 55.0063C41.0642 52.2308 42.0654 49.2712 42.6389 46.215C42.8013 45.4926 43.0043 44.6888 43.2175 43.8544C43.8781 41.7033 44.2701 39.4783 44.3847 37.2305C44.3019 36.0791 44.0452 34.9469 43.6235 33.8727C43.5921 33.7813 43.5874 33.6829 43.6099 33.5889C43.6323 33.495 43.681 33.4094 43.7502 33.3421C43.8194 33.2749 43.9063 33.2288 44.0007 33.2092C44.0951 33.1897 44.1931 33.1975 44.2832 33.2317C45.1786 33.7035 46.2174 33.8232 47.1963 33.5675C47.5191 33.391 47.7981 33.1438 48.0124 32.8443C48.2268 32.5449 48.3711 32.2008 48.4346 31.8377C48.5858 31.0153 48.6098 30.1745 48.5056 29.3448C48.4974 29.2491 48.517 29.153 48.5621 29.0681C48.6071 28.9833 48.6756 28.9133 48.7594 28.8666C48.8404 28.8172 48.9335 28.791 49.0283 28.791C49.1232 28.791 49.2162 28.8172 49.2973 28.8666C49.7654 29.1403 50.2843 29.3153 50.8223 29.3809C51.3602 29.4464 51.9059 29.4011 52.4257 29.2477C52.9456 29.0943 53.4287 28.8361 53.8455 28.4889C54.2622 28.1416 54.6038 27.7127 54.8494 27.2284C54.8942 27.1335 54.9668 27.0545 55.0574 27.0018C55.148 26.9492 55.2524 26.9253 55.3569 26.9333C55.4627 26.9415 55.5632 26.9835 55.6435 27.0531C55.7239 27.1227 55.7799 27.2162 55.8035 27.32C55.9659 28.0017 56.7576 28.4392 58.2496 28.6834C58.8451 28.7614 59.4464 28.7853 60.0462 28.7547C60.9165 28.6563 61.7971 28.797 62.5938 29.1617C63.0113 29.3939 63.3829 29.7008 63.69 30.0672C64.8846 31.5967 65.6203 33.4354 65.8114 35.3684C66.1407 38.0717 66.1407 40.8052 65.8114 43.5085C65.72 44.587 65.6287 45.6656 65.5779 46.734C65.243 54.0702 64.7253 61.4878 64.0554 68.7833C63.9742 69.6889 63.4464 70.9607 61.4469 71.8358C58.1177 73.3722 52.1393 73.2298 49.5612 72.3344L50.6879 89.9677C50.6924 90.0543 50.6753 90.1406 50.6381 90.2188C50.6009 90.297 50.5447 90.3646 50.4747 90.4154C50.3887 90.4969 50.2779 90.5471 50.1601 90.5579ZM25.8001 79.0194L49.5815 89.2962L48.4549 71.6323C48.4513 71.5361 48.4739 71.4407 48.5204 71.3564C48.5669 71.2721 48.6355 71.2022 48.7188 71.1541C48.7998 71.1047 48.8929 71.0785 48.9877 71.0785C49.0826 71.0785 49.1756 71.1047 49.2567 71.1541C50.6168 72.1716 57.4376 72.6091 60.9901 70.9811C62.2386 70.4011 62.9186 69.638 63.0201 68.7121C63.69 61.4267 64.2077 54.0295 64.5426 46.7136C64.5426 45.6249 64.6847 44.526 64.7862 43.4373C65.1057 40.8151 65.1057 38.1636 64.7862 35.5414C64.6126 33.8086 63.9586 32.1591 62.8983 30.7795C62.6701 30.5125 62.3991 30.2856 62.0965 30.1079C61.457 29.8341 60.7564 29.7357 60.0665 29.823C59.4056 29.8589 58.7429 29.8316 58.0872 29.7416C57.0452 29.6455 56.0624 29.2135 55.2858 28.5105C54.6234 29.3535 53.712 29.9649 52.6819 30.2573C51.6519 30.5497 50.5561 30.5081 49.5511 30.1385C49.5843 30.7762 49.5365 31.4156 49.409 32.0412C49.3076 32.5546 49.0926 33.0386 48.78 33.4577C48.4673 33.8768 48.0648 34.2203 47.6023 34.4629C46.7256 34.794 45.7587 34.794 44.8821 34.4629C45.1711 35.3309 45.3385 36.2349 45.3794 37.1491C45.277 39.4939 44.8745 41.8159 44.1817 44.0579C43.9686 44.8821 43.7656 45.6758 43.6133 46.3778C43.0275 49.5281 42.0025 52.58 40.5683 55.4438C36.1226 63.5838 29.1902 64.6013 27.3226 64.6013L25.8001 79.0194Z" fill="#231F20"/>
<path d="M49.145 48.3925C49.145 46.5508 48.2213 44.8516 47.2774 43.305C46.6138 42.0368 45.7616 40.8771 44.75 39.8658C44.2503 39.3529 43.6435 38.9572 42.9731 38.7074C42.3026 38.4576 41.5854 38.3598 40.8727 38.421C40.255 38.5543 39.672 38.8161 39.1615 39.1894C38.6509 39.5627 38.2242 40.0393 37.9089 40.5883C37.3106 41.7032 36.9641 42.9363 36.8939 44.2004C36.6707 46.9568 37.1739 49.7237 38.3532 52.2238C39.5325 54.7239 41.3464 56.8694 43.6132 58.4455L43.2275 57.9876" fill="white"/>
<path d="M43.5728 59.0356C43.4711 59.0337 43.3723 59.0019 43.2886 58.944C40.9481 57.308 39.0757 55.0861 37.8577 52.4995C36.6397 49.9129 36.1185 47.0516 36.346 44.2004C36.4307 42.8534 36.8157 41.5425 37.4726 40.3644C37.8211 39.7485 38.298 39.2151 38.8708 38.8007C39.4436 38.3863 40.0988 38.1006 40.7917 37.9631C41.5718 37.8727 42.3622 37.9582 43.105 38.2135C43.8479 38.4688 44.5244 38.8873 45.0851 39.4385C46.1343 40.4808 47.0175 41.6784 47.7038 42.9896C48.5869 44.4853 49.6831 46.3473 49.6425 48.3925C49.6372 48.5266 49.5804 48.6534 49.4839 48.7464C49.3874 48.8393 49.2587 48.8912 49.1248 48.8911C49.0582 48.8898 48.9924 48.8753 48.9314 48.8485C48.8703 48.8217 48.8151 48.7831 48.7689 48.7349C48.7227 48.6867 48.6865 48.6299 48.6622 48.5676C48.6379 48.5054 48.6261 48.439 48.6275 48.3722C48.6275 46.6119 47.6125 44.8923 46.8309 43.5085C46.192 42.2876 45.3744 41.1695 44.4051 40.1914C43.9515 39.7407 43.4043 39.3957 42.8026 39.1812C42.2008 38.9666 41.5593 38.8877 40.9236 38.9501C40.3759 39.0692 39.8595 39.3031 39.4082 39.6362C38.957 39.9694 38.581 40.3944 38.3049 40.8833C37.7151 41.9249 37.3681 43.0867 37.2899 44.2818C37.0948 46.7915 37.5186 49.3109 38.524 51.6176C39.5294 53.9244 41.0855 55.9478 43.0551 57.5094C43.138 57.4991 43.2221 57.5096 43.3 57.5397C43.3779 57.5699 43.4472 57.6189 43.5017 57.6823L43.8874 58.1402C43.9688 58.233 44.0137 58.3524 44.0137 58.476C44.0137 58.5996 43.9688 58.7189 43.8874 58.8118C43.8145 58.9235 43.7021 59.0035 43.5728 59.0356Z" fill="#231F20"/>
<path d="M19.9231 83.6897L22.3997 75.6515L54.6767 78.7752L56.5341 86.1623C56.5341 86.1623 39.6648 94.2006 19.9231 83.6897Z" fill="white"/>
<path d="M41.0859 89.5709C33.6229 89.553 26.2799 87.6865 19.71 84.1375C19.6061 84.0814 19.525 83.9908 19.4805 83.8812C19.4361 83.7716 19.4311 83.65 19.4664 83.5371L21.9329 75.4988C21.9672 75.3881 22.0382 75.2923 22.1342 75.2276C22.2302 75.1628 22.3454 75.1329 22.4607 75.1427L54.7478 78.2766C54.8519 78.2857 54.9506 78.3267 55.0305 78.3941C55.1104 78.4615 55.1677 78.5519 55.1944 78.6531L57.0417 86.0402C57.0715 86.1537 57.0603 86.2742 57.0101 86.3803C56.96 86.4863 56.8741 86.5713 56.7677 86.6202C51.7896 88.6441 46.4573 89.6475 41.0859 89.5709ZM20.5322 83.4659C25.9231 86.3667 31.8684 88.0839 37.9726 88.5032C44.0768 88.9225 50.2001 88.0343 55.9354 85.8977L54.2708 79.284L22.755 76.2314L20.5322 83.4659Z" fill="#231F20"/>
<path d="M61.5289 43.0842C62.1006 43.0752 62.5456 41.8882 62.5228 40.4329C62.5 38.9776 62.018 37.8052 61.4463 37.8142C60.8746 37.8232 60.4296 39.0102 60.4524 40.4655C60.4752 41.9208 60.9572 43.0932 61.5289 43.0842Z" fill="#231F20"/>
<path d="M7.53004 216.484C7.53004 216.484 -7.94871 112.943 5.62184 93.7732C13.2546 82.9877 25.5564 82.5807 36.8128 83.1098C45.5519 83.4964 53.2964 82.8351 60.0461 88.1973C75.464 100.56 97.9868 210.491 97.9868 210.491C97.9868 210.491 64.705 233.782 7.53004 216.484Z" fill="#F05252"/>
<path d="M110.496 75.8336L114.305 74.5796L118.977 88.8386C119.133 89.3155 119.094 89.8351 118.868 90.283C118.642 90.731 118.248 91.0706 117.772 91.2272L117.55 91.3002C117.315 91.3778 117.066 91.408 116.819 91.3893C116.572 91.3706 116.331 91.3032 116.109 91.1911C115.888 91.079 115.691 90.9242 115.529 90.7358C115.368 90.5473 115.245 90.3287 115.167 90.0926L110.496 75.8336Z" fill="white"/>
<path d="M116.967 91.8909C116.461 91.8921 115.967 91.7322 115.556 91.4342C115.146 91.1362 114.84 90.7154 114.684 90.2323L110.015 75.9873C109.973 75.8591 109.984 75.7196 110.045 75.5994C110.106 75.4792 110.212 75.3881 110.339 75.3462L114.105 74.0336C114.229 73.9828 114.367 73.9828 114.491 74.0336C114.61 74.0952 114.701 74.2011 114.745 74.3287L119.414 88.5738C119.514 88.8726 119.553 89.1884 119.531 89.5028C119.508 89.8172 119.423 90.124 119.282 90.4053C118.994 90.9733 118.494 91.4047 117.891 91.6059L117.668 91.6772C117.447 91.7844 117.211 91.8565 116.967 91.8909ZM111.131 76.1399L115.648 89.9169C115.764 90.2652 116.012 90.5536 116.339 90.7193C116.666 90.8851 117.045 90.9148 117.394 90.8021L117.617 90.7309C117.962 90.6096 118.248 90.3626 118.419 90.039C118.573 89.7218 118.598 89.3571 118.49 89.0215L113.983 75.2445L111.131 76.1399Z" fill="#231F20"/>
<path d="M111.302 61.4471L105.15 63.4725L109.719 77.4222L115.872 75.3967L111.302 61.4471Z" fill="white"/>
<path d="M109.72 77.9103C109.643 77.9257 109.564 77.9257 109.487 77.9103C109.367 77.8487 109.276 77.7429 109.233 77.6152L104.666 63.6652C104.624 63.5371 104.635 63.3976 104.696 63.2774C104.757 63.1572 104.863 63.0661 104.99 63.0242L111.141 60.9892C111.202 60.9617 111.268 60.9474 111.334 60.9474C111.401 60.9474 111.466 60.9617 111.527 60.9892C111.587 61.0183 111.641 61.0595 111.684 61.1103C111.728 61.1611 111.761 61.2203 111.781 61.2843L116.348 75.2343C116.399 75.3581 116.399 75.4971 116.348 75.6209C116.287 75.7408 116.181 75.8321 116.054 75.8753L109.903 77.9103H109.72ZM105.792 63.7772L110.045 76.7605L115.232 75.0511L110.969 62.0678L105.792 63.7772Z" fill="#231F20"/>
<path d="M116.597 86.2027L114.784 86.7957C113.586 87.1877 112.931 88.4791 113.322 89.6803L119.801 109.583C120.192 110.784 121.48 111.44 122.679 111.048L124.491 110.455C125.69 110.063 126.344 108.772 125.953 107.571L119.474 87.6679C119.083 86.4667 117.795 85.8107 116.597 86.2027Z" fill="white"/>
<path d="M122.286 111.234C121.699 111.232 121.128 111.045 120.652 110.7C120.177 110.355 119.822 109.869 119.637 109.311L113.09 89.4081C112.859 88.7024 112.916 87.9336 113.249 87.2699C113.582 86.6063 114.163 86.1019 114.866 85.8672L116.673 85.277C117.376 85.0455 118.141 85.103 118.802 85.4369C119.462 85.7707 119.963 86.3537 120.195 87.0577L126.722 106.97C126.953 107.675 126.895 108.442 126.562 109.104C126.229 109.766 125.648 110.268 124.945 110.501L123.128 111.091C122.858 111.185 122.573 111.233 122.286 111.234ZM117.576 86.1521C117.387 86.1527 117.198 86.1836 117.018 86.2437L115.211 86.8338C114.765 86.9825 114.395 87.3029 114.184 87.7245C113.973 88.1461 113.937 88.6345 114.085 89.0825L120.601 108.995C120.753 109.439 121.074 109.805 121.494 110.013C121.701 110.119 121.927 110.183 122.159 110.201C122.391 110.218 122.624 110.189 122.844 110.114L124.651 109.524C124.871 109.449 125.073 109.331 125.247 109.178C125.421 109.024 125.564 108.838 125.666 108.629C125.772 108.422 125.836 108.195 125.854 107.962C125.871 107.73 125.842 107.496 125.767 107.275L119.241 87.3731C119.125 87.0212 118.902 86.7145 118.604 86.4956C118.305 86.2767 117.946 86.1566 117.576 86.1521Z" fill="#231F20"/>
<path d="M107.051 76.1094C116.541 76.1094 124.235 68.3969 124.235 58.883C124.235 49.3691 116.541 41.6566 107.051 41.6566C97.5605 41.6566 89.8669 49.3691 89.8669 58.883C89.8669 68.3969 97.5605 76.1094 107.051 76.1094Z" fill="white"/>
<path d="M107.071 76.6181C102.621 76.6227 98.3324 74.9458 95.0607 71.9218C91.7889 68.8978 89.7741 64.7488 89.4181 60.302C89.062 55.8551 90.3908 51.4371 93.1395 47.9286C95.8883 44.4202 99.855 42.0791 104.249 41.372C108.643 40.665 113.141 41.644 116.847 44.1138C120.553 46.5836 123.194 50.3628 124.245 54.6979C125.295 59.0331 124.677 63.6058 122.513 67.5044C120.35 71.4029 116.8 74.341 112.572 75.7329C110.797 76.3167 108.94 76.6155 107.071 76.6181ZM107.071 42.1654C105.309 42.1639 103.558 42.4456 101.884 42.9997C97.899 44.3116 94.5531 47.081 92.5138 50.7559C90.4745 54.4307 89.8917 58.741 90.8814 62.8274C91.8711 66.9139 94.3608 70.4763 97.854 72.8045C101.347 75.1327 105.587 76.0557 109.729 75.3894C113.871 74.7231 117.61 72.5165 120.202 69.2096C122.793 65.9026 124.045 61.7381 123.71 57.5464C123.375 53.3547 121.476 49.4436 118.392 46.593C115.308 43.7423 111.266 42.1614 107.071 42.1654Z" fill="#231F20"/>
<path d="M107.051 72.8737C114.759 72.8737 121.007 66.6098 121.007 58.883C121.007 51.1561 114.759 44.8923 107.051 44.8923C99.3429 44.8923 93.0945 51.1561 93.0945 58.883C93.0945 66.6098 99.3429 72.8737 107.051 72.8737Z" fill="white"/>
<path d="M107.061 73.3824C104.395 73.3838 101.781 72.6467 99.5069 71.2525C97.2329 69.8582 95.3874 67.8611 94.1743 65.4817C92.9611 63.1022 92.4275 60.433 92.6324 57.7687C92.8372 55.1043 93.7726 52.5486 95.3352 50.3836C96.8977 48.2186 99.0267 46.5287 101.487 45.5003C103.947 44.4719 106.643 44.1451 109.277 44.556C111.911 44.9669 114.381 46.0995 116.413 47.8287C118.445 49.5579 119.961 51.8165 120.794 54.3551C121.508 56.5322 121.697 58.848 121.345 61.1125C120.994 63.377 120.112 65.5257 118.772 67.3824C117.431 69.2391 115.671 70.7509 113.636 71.7939C111.6 72.8368 109.347 73.3812 107.061 73.3824ZM107.061 45.3909C104.217 45.3851 101.444 46.2825 99.1406 47.9545C96.837 49.6264 95.1209 51.9869 94.2386 54.6973C93.3563 57.4076 93.3531 60.3284 94.2295 63.0407C95.1059 65.7529 96.8168 68.1172 99.1168 69.7941C101.417 71.4711 104.187 72.3747 107.031 72.3751C109.875 72.3755 112.646 71.4728 114.947 69.7965C117.247 68.1202 118.959 65.7565 119.836 63.0445C120.713 60.3325 120.711 57.4116 119.83 54.701C118.946 51.9897 117.229 49.6284 114.924 47.9558C112.619 46.2832 109.845 45.3853 107 45.3909H107.061Z" fill="#231F20"/>
<path d="M104.676 117.644L105.356 112.556C105.356 112.343 105.701 96.6426 107.051 95.4317C108.401 94.2209 125.92 81.4818 127.148 83.2217C128.376 84.9616 125.92 88.238 125.92 88.238C125.92 88.238 130.03 87.8208 129.614 90.273C129.198 92.7252 126.742 95.2181 126.742 95.2181C126.742 95.2181 129.259 93.3662 129.645 96.0422C129.754 96.8177 129.657 97.6085 129.363 98.334C129.069 99.0596 128.588 99.6942 127.97 100.173C127.97 100.173 131.675 98.525 130.853 101.608C130.03 104.691 121.017 112.536 121.017 112.536L119.931 119.252L104.676 117.644Z" fill="white"/>
<path d="M119.931 119.821H119.88L104.655 118.193H104.564C104.148 118.071 104.148 118.071 104.767 113.482L104.889 112.577C104.889 112.485 105.153 96.5815 106.756 95.1265C107.771 94.1904 123.534 82.6112 126.803 82.6112H126.935C127.066 82.6202 127.194 82.6577 127.309 82.7209C127.425 82.7841 127.526 82.8716 127.604 82.9775C128.619 84.4122 127.604 86.5591 126.924 87.7496C127.932 87.7144 128.918 88.0511 129.695 88.6959C129.9 88.9294 130.048 89.2066 130.129 89.5065C130.21 89.8063 130.221 90.1207 130.162 90.4256C129.859 91.7869 129.255 93.0628 128.396 94.1599C128.632 94.155 128.866 94.1965 129.086 94.282C129.412 94.4485 129.686 94.6999 129.881 95.0097C130.076 95.3195 130.183 95.6762 130.193 96.0423C130.365 97.1762 130.127 98.3345 129.523 99.3085C130.047 99.227 130.583 99.3548 131.015 99.6646C131.272 99.951 131.443 100.305 131.508 100.685C131.573 101.065 131.528 101.456 131.38 101.812C130.578 104.864 122.722 111.824 121.525 112.872L120.51 119.404C120.485 119.535 120.411 119.651 120.303 119.728C120.196 119.806 120.062 119.839 119.931 119.821ZM105.244 117.237L119.515 118.753L120.53 112.516C120.544 112.397 120.602 112.288 120.692 112.21C123.169 110.063 129.726 103.958 130.375 101.547C130.517 100.987 130.507 100.58 130.375 100.428C130.02 100.133 128.904 100.428 128.234 100.692C128.119 100.747 127.987 100.755 127.866 100.715C127.746 100.675 127.645 100.591 127.584 100.479C127.519 100.37 127.499 100.24 127.527 100.117C127.555 99.9937 127.63 99.8862 127.736 99.8172C128.277 99.3942 128.697 98.8356 128.954 98.1978C129.211 97.56 129.295 96.8656 129.198 96.1847C129.137 95.8082 129.015 95.3504 128.701 95.2181C128.203 95.0044 127.351 95.503 127.087 95.6963C126.984 95.7703 126.857 95.803 126.731 95.7879C126.605 95.7729 126.489 95.7112 126.407 95.6149C126.322 95.5198 126.275 95.3966 126.275 95.269C126.275 95.1413 126.322 95.0182 126.407 94.923C126.407 94.923 128.772 92.5319 129.147 90.2527C129.188 90.1029 129.19 89.9455 129.155 89.7945C129.119 89.6436 129.047 89.5038 128.944 89.3878C128.315 88.7162 126.6 88.7264 126.001 88.7773C125.902 88.787 125.803 88.7682 125.715 88.7231C125.627 88.678 125.553 88.6085 125.503 88.5229C125.448 88.4419 125.419 88.3462 125.419 88.2482C125.419 88.1502 125.448 88.0545 125.503 87.9735C126.123 87.1391 127.533 84.7174 126.732 83.5575C125.006 83.0386 109.152 94.2718 107.386 95.8693C106.371 96.8868 105.853 110.043 105.853 112.617C105.853 112.617 105.853 113.024 105.721 113.635C105.599 114.54 105.356 116.331 105.244 117.196V117.237Z" fill="#231F20"/>
<path d="M60.0257 88.1973C60.0257 88.1973 69.8915 94.1802 77.2807 107.886C84.6699 121.592 95.6522 155.485 95.6522 155.485L101.976 112.312L123.544 117.186C123.544 117.186 125.392 194.516 106.289 203.216C87.1871 211.916 38.3555 158.08 38.3555 158.08L60.0257 88.1973Z" fill="#F05252"/>
<path d="M100.068 204.6H99.9256C99.8241 204.6 89.1767 201.374 76.8445 189.927C65.4968 179.386 50.3226 159.484 42.4868 124.502C42.4721 124.435 42.4707 124.366 42.4826 124.299C42.4946 124.231 42.5197 124.167 42.5564 124.109C42.5932 124.052 42.6409 124.002 42.6969 123.963C42.7528 123.924 42.816 123.896 42.8826 123.881C42.9492 123.866 43.0181 123.865 43.0853 123.877C43.1525 123.889 43.2167 123.914 43.2742 123.951C43.3317 123.988 43.3813 124.036 43.4204 124.092C43.4594 124.148 43.4871 124.211 43.5018 124.278C58.3715 190.691 99.8139 203.501 100.23 203.643C100.365 203.662 100.486 203.734 100.568 203.843C100.65 203.952 100.685 204.088 100.667 204.223C100.648 204.358 100.576 204.48 100.468 204.562C100.359 204.644 100.223 204.68 100.088 204.661L100.068 204.6Z" fill="#231F20"/>
<path d="M105.66 65.3849C105.995 65.1305 106.32 64.8659 106.675 64.6217L109.467 62.5867C110.086 62.1289 110.695 61.6811 111.273 61.1622C111.784 60.719 112.226 60.201 112.583 59.6258C112.8 59.2335 112.97 58.8168 113.09 58.3844C113.203 58.0092 113.281 57.6243 113.324 57.2347C113.416 56.6231 113.297 55.9981 112.984 55.4645C112.672 54.931 112.186 54.5213 111.608 54.3042C110.989 54.0765 110.32 54.0225 109.672 54.1481C109.025 54.2736 108.424 54.5738 107.934 55.0165C107.672 55.235 107.434 55.4805 107.223 55.7491V55.6779C106.948 55.0803 106.498 54.5803 105.934 54.2432C105.414 53.9445 104.817 53.8065 104.219 53.8464C103.472 53.8789 102.752 54.1374 102.154 54.5878C101.556 55.0382 101.109 55.6594 100.87 56.3698C100.755 56.7401 100.683 57.1225 100.656 57.5094C100.611 57.9185 100.611 58.3315 100.656 58.7406C100.745 59.3418 100.967 59.9155 101.306 60.4194C101.652 60.9346 102.042 61.4181 102.473 61.8643C103.113 62.5359 103.772 63.2074 104.412 63.8993C104.858 64.3674 105.285 64.8456 105.711 65.3238L105.66 65.3849Z" fill="#F05252"/>
<path d="M62.0659 64.0214L56.5341 60.8061C56.5341 60.8061 54.8492 67.4707 57.8536 69.1903C60.858 70.9099 62.0659 64.0214 62.0659 64.0214Z" fill="white"/>
<path d="M58.7875 69.9636C58.3679 69.9569 57.9578 69.8375 57.6 69.6177C54.3012 67.7353 55.9658 60.9587 56.0368 60.6738C56.0572 60.5978 56.0942 60.5274 56.1451 60.4675C56.196 60.4077 56.2596 60.36 56.3312 60.3279C56.4023 60.2928 56.4804 60.2746 56.5596 60.2746C56.6388 60.2746 56.7169 60.2928 56.788 60.3279L62.34 63.5839C62.4288 63.6375 62.4995 63.7166 62.5429 63.8109C62.5863 63.9052 62.6005 64.0105 62.5836 64.113C62.4923 64.5912 61.6904 68.8138 59.6604 69.7703C59.3874 69.899 59.0892 69.965 58.7875 69.9636ZM56.8793 61.5896C56.4733 63.6246 56.1587 67.6234 58.1075 68.7121C58.2693 68.8234 58.457 68.8912 58.6525 68.909C58.8479 68.9269 59.0447 68.8941 59.2239 68.8139C60.4318 68.244 61.254 65.5884 61.4976 64.2554L56.8793 61.5896Z" fill="#231F20"/>
<path d="M48.9624 71.5611C48.9624 71.5611 40.9135 69.404 38.2339 66.8195C41.4232 70.5781 45.0917 73.8999 49.1451 76.6995L48.9624 71.5611Z" fill="#231F20"/>
<path d="M49.145 77.2083C49.0471 77.2127 48.9506 77.184 48.8709 77.1268C44.7631 74.2994 41.0435 70.9435 37.8074 67.1451C37.7264 67.045 37.6864 66.9178 37.6953 66.7892C37.7043 66.6607 37.7616 66.5403 37.8557 66.4524C37.9498 66.3646 38.0736 66.3158 38.2022 66.3159C38.3308 66.3161 38.4545 66.3652 38.5484 66.4532C41.1062 68.9156 48.9826 71.0523 49.0638 71.0727C49.1686 71.0992 49.262 71.1592 49.3297 71.2437C49.3975 71.3281 49.436 71.4324 49.4393 71.5408L49.6525 76.6283C49.6574 76.7222 49.6364 76.8156 49.5916 76.8983C49.5468 76.9809 49.48 77.0494 49.3987 77.0963C49.3244 77.1537 49.2373 77.1921 49.145 77.2083ZM41.1265 69.2717C43.4073 71.6543 45.9086 73.8143 48.5969 75.7227L48.4345 71.9477C45.9426 71.2478 43.5093 70.353 41.1569 69.2717H41.1265Z" fill="#231F20"/>
</svg>
