<svg width="1768" height="600" viewBox="0 0 1768 600" fill="none" xmlns="http://www.w3.org/2000/svg">
<path d="M590.193 227.819V365H558.494V227.819H590.193ZM660.252 366.483C650.118 366.483 640.973 364.32 632.816 359.995C624.783 355.669 618.418 349.49 613.722 341.457C609.149 333.424 606.863 324.031 606.863 313.279C606.863 302.651 609.211 293.32 613.907 285.287C618.604 277.13 625.03 270.889 633.187 266.564C641.344 262.238 650.489 260.075 660.623 260.075C670.757 260.075 679.902 262.238 688.059 266.564C696.216 270.889 702.642 277.13 707.339 285.287C712.035 293.32 714.383 302.651 714.383 313.279C714.383 323.908 711.973 333.3 707.153 341.457C702.457 349.49 695.969 355.669 687.688 359.995C679.532 364.32 670.386 366.483 660.252 366.483ZM660.252 339.047C666.308 339.047 671.437 336.822 675.639 332.373C679.964 327.924 682.127 321.559 682.127 313.279C682.127 304.999 680.026 298.634 675.824 294.185C671.746 289.736 666.679 287.511 660.623 287.511C654.444 287.511 649.315 289.736 645.237 294.185C641.158 298.511 639.119 304.875 639.119 313.279C639.119 321.559 641.096 327.924 645.051 332.373C649.13 336.822 654.197 339.047 660.252 339.047ZM777.731 335.339L800.162 261.558H833.901L797.195 365H758.08L721.375 261.558H755.3L777.731 335.339ZM944.753 311.611C944.753 314.577 944.568 317.666 944.197 320.88H872.455C872.949 327.306 874.989 332.25 878.573 335.71C882.28 339.047 886.791 340.715 892.105 340.715C900.015 340.715 905.514 337.378 908.604 330.705H942.343C940.613 337.502 937.461 343.62 932.889 349.057C928.44 354.495 922.816 358.759 916.019 361.849C909.222 364.938 901.621 366.483 893.218 366.483C883.084 366.483 874.062 364.32 866.152 359.995C858.243 355.669 852.063 349.49 847.614 341.457C843.165 333.424 840.941 324.031 840.941 313.279C840.941 302.527 843.103 293.135 847.429 285.102C851.878 277.068 858.057 270.889 865.967 266.564C873.876 262.238 882.96 260.075 893.218 260.075C903.228 260.075 912.126 262.176 919.912 266.378C927.698 270.58 933.754 276.574 938.079 284.36C942.528 292.146 944.753 301.23 944.753 311.611ZM912.312 303.269C912.312 297.831 910.458 293.505 906.75 290.292C903.043 287.079 898.408 285.472 892.847 285.472C887.533 285.472 883.022 287.017 879.314 290.107C875.73 293.196 873.506 297.584 872.64 303.269H912.312ZM955.173 313.094C955.173 302.465 957.151 293.135 961.106 285.102C965.184 277.068 970.683 270.889 977.604 266.564C984.525 262.238 992.249 260.075 1000.78 260.075C1007.57 260.075 1013.75 261.497 1019.31 264.339C1025 267.182 1029.45 271.013 1032.66 275.833V227.819H1064.36V365H1032.66V350.17C1029.7 355.113 1025.43 359.068 1019.87 362.034C1014.43 365 1008.07 366.483 1000.78 366.483C992.249 366.483 984.525 364.32 977.604 359.995C970.683 355.546 965.184 349.305 961.106 341.271C957.151 333.115 955.173 323.722 955.173 313.094ZM1032.66 313.279C1032.66 305.37 1030.44 299.129 1025.99 294.556C1021.66 289.983 1016.35 287.697 1010.05 287.697C1003.74 287.697 998.367 289.983 993.918 294.556C989.592 299.005 987.429 305.184 987.429 313.094C987.429 321.003 989.592 327.306 993.918 332.002C998.367 336.575 1003.74 338.862 1010.05 338.862C1016.35 338.862 1021.66 336.575 1025.99 332.002C1030.44 327.43 1032.66 321.189 1032.66 313.279ZM1080.99 313.094C1080.99 302.465 1082.97 293.135 1086.92 285.102C1091 277.068 1096.5 270.889 1103.42 266.564C1110.34 262.238 1118.07 260.075 1126.6 260.075C1133.89 260.075 1140.25 261.558 1145.69 264.524C1151.25 267.49 1155.51 271.383 1158.48 276.203V261.558H1190.18V365H1158.48V350.355C1155.39 355.175 1151.07 359.068 1145.5 362.034C1140.07 365 1133.7 366.483 1126.41 366.483C1118.01 366.483 1110.34 364.32 1103.42 359.995C1096.5 355.546 1091 349.305 1086.92 341.271C1082.97 333.115 1080.99 323.722 1080.99 313.094ZM1158.48 313.279C1158.48 305.37 1156.26 299.129 1151.81 294.556C1147.48 289.983 1142.17 287.697 1135.86 287.697C1129.56 287.697 1124.19 289.983 1119.74 294.556C1115.41 299.005 1113.25 305.184 1113.25 313.094C1113.25 321.003 1115.41 327.306 1119.74 332.002C1124.19 336.575 1129.56 338.862 1135.86 338.862C1142.17 338.862 1147.48 336.575 1151.81 332.002C1156.26 327.43 1158.48 321.189 1158.48 313.279ZM1276.7 260.446C1288.56 260.446 1298.08 264.401 1305.25 272.31C1312.42 280.096 1316 290.848 1316 304.566V365H1284.49V308.83C1284.49 301.909 1282.69 296.533 1279.11 292.702C1275.53 288.871 1270.71 286.955 1264.65 286.955C1258.59 286.955 1253.77 288.871 1250.19 292.702C1246.61 296.533 1244.81 301.909 1244.81 308.83V365H1213.11V227.819H1244.81V275.462C1248.03 270.889 1252.41 267.243 1257.98 264.524C1263.54 261.806 1269.78 260.446 1276.7 260.446ZM1369.73 227.819V365H1338.03V227.819H1369.73ZM1408.64 250.806C1403.08 250.806 1398.51 249.2 1394.92 245.986C1391.46 242.65 1389.73 238.571 1389.73 233.751C1389.73 228.808 1391.46 224.73 1394.92 221.516C1398.51 218.18 1403.08 216.511 1408.64 216.511C1414.08 216.511 1418.53 218.18 1421.99 221.516C1425.57 224.73 1427.37 228.808 1427.37 233.751C1427.37 238.571 1425.57 242.65 1421.99 245.986C1418.53 249.2 1414.08 250.806 1408.64 250.806ZM1424.4 261.558V365H1392.7V261.558H1424.4ZM1441.07 313.094C1441.07 302.465 1443.05 293.135 1447 285.102C1451.08 277.068 1456.58 270.889 1463.5 266.564C1470.42 262.238 1478.15 260.075 1486.67 260.075C1493.96 260.075 1500.33 261.558 1505.77 264.524C1511.33 267.49 1515.59 271.383 1518.56 276.203V261.558H1550.26V365H1518.56V350.355C1515.47 355.175 1511.14 359.068 1505.58 362.034C1500.14 365 1493.78 366.483 1486.49 366.483C1478.08 366.483 1470.42 364.32 1463.5 359.995C1456.58 355.546 1451.08 349.305 1447 341.271C1443.05 333.115 1441.07 323.722 1441.07 313.094ZM1518.56 313.279C1518.56 305.37 1516.33 299.129 1511.88 294.556C1507.56 289.983 1502.25 287.697 1495.94 287.697C1489.64 287.697 1484.26 289.983 1479.81 294.556C1475.49 299.005 1473.33 305.184 1473.33 313.094C1473.33 321.003 1475.49 327.306 1479.81 332.002C1484.26 336.575 1489.64 338.862 1495.94 338.862C1502.25 338.862 1507.56 336.575 1511.88 332.002C1516.33 327.43 1518.56 321.189 1518.56 313.279ZM1588.02 366.483C1582.46 366.483 1577.89 364.876 1574.3 361.663C1570.84 358.326 1569.11 354.248 1569.11 349.428C1569.11 344.485 1570.84 340.345 1574.3 337.008C1577.89 333.671 1582.46 332.002 1588.02 332.002C1593.46 332.002 1597.91 333.671 1601.37 337.008C1604.95 340.345 1606.75 344.485 1606.75 349.428C1606.75 354.248 1604.95 358.326 1601.37 361.663C1597.91 364.876 1593.46 366.483 1588.02 366.483Z" fill="#252D29"/>
<g clip-path="url(#clip0_93_20)">
<path fill-rule="evenodd" clip-rule="evenodd" d="M370.5 196.5C370.5 181.25 364.442 166.625 353.659 155.841C342.875 145.058 328.25 139 313 139C297.75 139 283.125 145.058 272.341 155.841C261.558 166.625 255.5 181.25 255.5 196.5V208H370.5V196.5ZM393.5 196.5V208H474V438C474 450.2 469.154 461.9 460.527 470.527C451.9 479.154 440.2 484 428 484H198C185.8 484 174.1 479.154 165.473 470.527C156.846 461.9 152 450.2 152 438V208H232.5V196.5C232.5 175.15 240.981 154.675 256.078 139.578C271.175 124.481 291.65 116 313 116C334.35 116 354.825 124.481 369.922 139.578C385.019 154.675 393.5 175.15 393.5 196.5ZM451 438V231H175V438C175 444.1 177.423 449.95 181.737 454.263C186.05 458.577 191.9 461 198 461H428C434.1 461 439.95 458.577 444.263 454.263C448.577 449.95 451 444.1 451 438ZM313 299.839C351.272 260.486 446.975 329.348 313 417.875C179.025 329.325 274.728 260.486 313 299.839Z" fill="#F05252"/>
</g>
<defs>
<clipPath id="clip0_93_20">
<rect width="368" height="368" fill="white" transform="translate(129 116)"/>
</clipPath>
</defs>
</svg>
